<?xml version="1.0" encoding="UTF-8"?>
<svg id="Camada_1" data-name="Camada 1" xmlns="http://www.w3.org/2000/svg" viewBox="0 0 130 54.01">
  <defs>
    <style>
      .cls-1 {
        fill: #fff;
      }
    </style>
  </defs>
  <path class="cls-1" d="M13.91,50.71h-2.35v1.65c0,.28.12.42.37.42h2.36c.17,0,.28.04.34.1.05.06.08.2.08.4v.1c0,.2-.03.33-.08.4-.05.06-.17.1-.34.1h-2.64c-.37,0-.65-.1-.82-.3-.17-.2-.25-.52-.25-.97v-4.67c0-.44.08-.76.25-.97.17-.2.44-.3.82-.3h2.64c.17,0,.28.04.34.1.05.06.08.2.08.4v.1c0,.2-.03.33-.08.4-.05.06-.17.1-.34.1h-2.36c-.24,0-.37.14-.37.42v1.42h2.35c.17,0,.28.04.34.1.05.06.08.2.08.4v.1c0,.2-.03.33-.08.4-.05.06-.17.1-.34.1Z"/>
  <path class="cls-1" d="M21.42,53.37v-5.33c0-.52.08-.89.26-1.12.18-.23.45-.33.85-.33.33,0,.57.08.74.25.16.17.3.48.4.92l1.17,4.94c.03.13.06.21.1.25.03.05.08.06.14.06.12,0,.18-.12.18-.36v-5.44c0-.21.03-.34.08-.41.05-.06.17-.1.34-.1h.09c.18,0,.29.04.34.1.05.06.08.2.08.41v5.33c0,.53-.08.9-.24,1.13-.17.23-.43.33-.82.33-.34,0-.59-.09-.76-.26-.17-.18-.31-.5-.43-.97l-1.16-4.83c-.03-.14-.06-.24-.1-.29-.03-.05-.08-.07-.15-.07-.12,0-.18.13-.18.39v5.42c0,.21-.03.34-.08.41-.05.06-.17.1-.34.1h-.09c-.18,0-.29-.04-.34-.1-.05-.06-.08-.2-.08-.41v-.02Z"/>
  <path class="cls-1" d="M36.6,52.37v-2.01c0-.2.03-.33.08-.4.05-.06.17-.1.34-.1h.08c.17,0,.28.04.34.1.05.06.08.2.08.4v2.02c0,.5-.07.86-.21,1.09-.14.23-.39.39-.75.46-.22.05-.49.08-.79.08-.98,0-1.68-.22-2.12-.66-.43-.44-.66-1.16-.66-2.15v-1.77c0-.91.23-1.62.69-2.1.46-.49,1.14-.73,2.04-.73.5,0,.94.09,1.33.26.16.07.26.14.3.2.04.06.06.18.06.36v.16c0,.2-.02.32-.08.38-.05.05-.15.05-.3,0-.4-.18-.85-.28-1.32-.28-.62,0-1.07.14-1.33.42-.26.28-.39.75-.39,1.41v1.77c0,.57.14.98.4,1.25.27.26.72.4,1.35.4.24,0,.41,0,.51-.04.22-.04.33-.21.33-.51Z"/>
  <path class="cls-1" d="M47.61,50.71h-2.35v1.65c0,.28.12.42.37.42h2.36c.17,0,.28.04.34.1.05.06.08.2.08.4v.1c0,.2-.03.33-.08.4-.05.06-.17.1-.34.1h-2.64c-.37,0-.65-.1-.82-.3-.17-.2-.25-.52-.25-.97v-4.67c0-.44.08-.76.25-.97.17-.2.44-.3.82-.3h2.64c.17,0,.28.04.34.1.05.06.08.2.08.4v.1c0,.2-.03.33-.08.4-.05.06-.17.1-.34.1h-2.36c-.24,0-.37.14-.37.42v1.42h2.35c.17,0,.28.04.34.1.05.06.08.2.08.4v.1c0,.2-.03.33-.08.4-.05.06-.17.1-.34.1Z"/>
  <path class="cls-1" d="M55.12,53.37v-5.33c0-.52.08-.89.26-1.12.18-.23.45-.33.85-.33.33,0,.58.08.74.25.16.17.3.48.4.92l1.17,4.94c.03.13.06.21.1.25.03.05.08.06.14.06.12,0,.19-.12.19-.36v-5.44c0-.21.03-.34.08-.41.05-.06.17-.1.34-.1h.09c.18,0,.29.04.34.1.05.06.08.2.08.41v5.33c0,.53-.08.9-.24,1.13-.17.23-.43.33-.82.33-.34,0-.59-.09-.76-.26-.17-.18-.31-.5-.43-.97l-1.16-4.83c-.03-.14-.06-.24-.1-.29-.03-.05-.08-.07-.15-.07-.12,0-.18.13-.18.39v5.42c0,.21-.03.34-.08.41-.05.06-.17.1-.34.1h-.09c-.18,0-.29-.04-.34-.1-.05-.06-.08-.2-.08-.41l-.02-.02Z"/>
  <path class="cls-1" d="M70.4,53.37v-2.73h-2.54v2.73c0,.21-.03.34-.08.41-.05.06-.18.1-.34.1h-.12c-.18,0-.29-.04-.34-.1-.05-.06-.08-.2-.08-.41v-6.16c0-.21.03-.34.08-.41.05-.06.17-.1.34-.1h.12c.18,0,.29.04.34.1.05.06.08.2.08.41v2.35h2.54v-2.35c0-.21.03-.34.08-.41.05-.06.17-.1.34-.1h.12c.17,0,.29.04.34.1.05.06.08.2.08.41v6.16c0,.21-.03.34-.08.41-.05.06-.17.1-.34.1h-.12c-.17,0-.29-.04-.34-.1-.05-.06-.08-.2-.08-.41Z"/>
  <path class="cls-1" d="M82.16,48.45l1.15,4.94c.05.19.05.32,0,.39-.04.06-.14.1-.32.1h-.13c-.17,0-.29-.03-.36-.09-.07-.06-.13-.19-.18-.4l-.34-1.51h-2.62l-.34,1.51c-.05.2-.11.33-.18.4s-.19.09-.36.09h-.13c-.18,0-.28-.04-.32-.1-.04-.06-.04-.2,0-.39l1.15-4.94c.17-.71.34-1.2.53-1.46.19-.26.52-.4.97-.4s.78.14.96.4c.19.26.37.74.53,1.46h0ZM80.13,48.43l-.55,2.41h2.16l-.55-2.41c-.08-.34-.15-.56-.21-.65-.06-.1-.17-.14-.32-.14s-.26.05-.32.15c-.07.1-.14.32-.21.65h0Z"/>
  <path class="cls-1" d="M94.4,48.92c0,.61-.11,1.09-.31,1.44-.21.34-.54.58-.99.69l1.29,2.36c.11.19.14.32.11.39-.03.06-.15.1-.34.1h-.16c-.19,0-.34-.04-.44-.1-.1-.06-.21-.2-.31-.39l-1.22-2.27h-1.2v2.25c0,.21-.03.34-.08.41-.05.06-.18.1-.34.1h-.12c-.17,0-.29-.04-.34-.1-.05-.06-.08-.2-.08-.41v-5.42c0-.44.08-.76.25-.97.17-.2.44-.3.81-.3h1.48c.7,0,1.21.18,1.53.55.32.36.48.92.48,1.68h-.01ZM92.38,47.79h-1.2c-.24,0-.37.14-.37.42v1.82h1.56c.37,0,.64-.09.8-.26.16-.17.24-.46.24-.86s-.08-.69-.24-.87c-.16-.17-.42-.26-.8-.26Z"/>
  <path class="cls-1" d="M101.27,53.37v-6.16c0-.21.03-.34.08-.41.05-.06.17-.1.34-.1h.12c.18,0,.29.04.34.1.05.06.08.2.08.41v6.16c0,.21-.03.34-.08.41-.05.06-.17.1-.34.1h-.12c-.18,0-.29-.04-.34-.1-.05-.06-.08-.2-.08-.41Z"/>
  <path class="cls-1" d="M113.11,48.45l1.15,4.94c.04.19.04.32,0,.39-.04.06-.15.1-.32.1h-.13c-.17,0-.29-.03-.36-.09s-.13-.19-.18-.4l-.34-1.51h-2.62l-.34,1.51c-.05.2-.11.33-.18.4-.07.06-.19.09-.36.09h-.13c-.18,0-.28-.04-.32-.1-.04-.06-.04-.2,0-.39l1.15-4.94c.17-.71.34-1.2.53-1.46.19-.26.52-.4.97-.4s.78.14.96.4c.19.26.37.74.53,1.46h0ZM111.08,48.43l-.55,2.41h2.16l-.55-2.41c-.08-.34-.14-.56-.21-.65-.06-.1-.17-.14-.32-.14s-.26.05-.32.15c-.07.1-.14.32-.21.65h0Z"/>
  <path class="cls-1" d="M64.22,0h-7.03v32.19h7.03V0Z"/>
  <path class="cls-1" d="M53,26.23h-10.09c-.59,0-1.05,0-1.36-.04-.31-.03-.53-.11-.66-.24-.13-.14-.19-.37-.19-.68v-6.28c0-.56-.25-1.08-.66-1.37l-6.36-3.69h14.91v-5.97h-7.89V0h-7.03v25.8c0,1.21.08,2.23.22,3.04.15.82.43,1.47.86,1.97.43.5,1.02.85,1.79,1.06.77.22,1.77.32,3,.32h13.44v-5.96Z"/>
  <path class="cls-1" d="M110.81,13.92h19.19v-5.97h-23.96c-2.16,0-3.92,2.08-3.92,4.65v5.79c0,2.56,1.76,4.65,3.92,4.65h2.11l7.13.05h8.35v3.15h-21.52v5.92h23.95c2.16,0,3.92-2.08,3.92-4.65v-5.66c0-2.56-1.76-4.65-3.92-4.65h-2.57l-7.82-.05h-7.05v-3.24h2.19Z"/>
  <path class="cls-1" d="M29.27,11.29c-.15-.82-.43-1.47-.86-1.97-.43-.49-1.02-.85-1.79-1.06-.77-.22-1.77-.32-3-.32H3.85v5.97h17.67c.53,0,.96.51.94,1.15v1.71l-15.7,1.36C-.68,18.95.02,21.38.02,25.8v2.11c0,.07.02.14.02.21,0,.12.02.24.03.36.24,2.09,1.87,3.72,3.7,3.72l2.99-.04h16.85c1.23,0,2.23-.11,3-.32.77-.22,1.36-.57,1.79-1.06s.72-1.15.86-1.97c.14-.82.22-1.83.22-3.04v-11.43c0-1.21-.08-2.23-.22-3.04h0ZM22.46,22.05v4.17H5.2v-1.71c0-.61.4-1.11.91-1.15l16.35-1.57v.25Z"/>
  <path class="cls-1" d="M97.7,11.29c-.15-.82-.43-1.47-.86-1.97-.43-.49-1.02-.85-1.79-1.06-.77-.22-1.77-.32-3-.32h-19.76v5.97h17.67c.53,0,.96.51.94,1.15v1.71l-15.7,1.36c-7.45.83-6.74,3.25-6.74,7.66v2.11c0,.07.01.14.01.21,0,.12.02.24.03.36.24,2.09,1.87,3.72,3.7,3.72l2.99-.04h16.85c1.23,0,2.23-.11,3-.32.77-.22,1.36-.57,1.79-1.06.43-.49.72-1.15.86-1.97.14-.82.22-1.83.22-3.04v-11.43c0-1.21-.08-2.23-.22-3.04h0ZM90.9,22.05v4.17h-17.27v-1.71c0-.61.4-1.11.91-1.15l16.35-1.57v.25h0Z"/>
</svg>