<?xml version="1.0" encoding="UTF-8"?>
<svg id="Camada_1" xmlns="http://www.w3.org/2000/svg" version="1.1" viewBox="0 0 500 398.17">
  <!-- Generator: Adobe Illustrator 30.2.1, SVG Export Plug-In . SVG Version: 2.1.1 Build 1)  -->
  <defs>
    <style>
      .st0 {
        fill: #d0493a;
      }

      .st1 {
        fill: #e6c4a4;
      }

      .st2 {
        fill: #4a6eaa;
      }

      .st3 {
        fill: #fff;
      }

      .st4 {
        fill: #c37a30;
      }

      .st5 {
        fill: #b7820b;
      }

      .st6 {
        fill: #515860;
      }

      .st7 {
        fill: #b23228;
      }

      .st8 {
        fill: #b5b8ba;
      }

      .st9 {
        fill: #74787a;
      }

      .st10 {
        fill: #bbbbbc;
      }

      .st11 {
        fill: #cccdce;
      }

      .st12 {
        fill: #5d646b;
      }

      .st13 {
        fill: #dbd9d7;
      }

      .st14 {
        fill: #a67458;
      }

      .st15 {
        fill: #a5a5a5;
      }

      .st16 {
        fill: #2e333b;
      }

      .st17 {
        fill: #1890ff;
      }

      .st18 {
        fill: #edb732;
      }
    </style>
  </defs>
  <g id="OBJECTS">
    <path class="st17" d="M462.06,375.54v-30.4h-33.89V52.95h16.29c.92,1.71,2.59,2.94,4.57,3.28v80.28c-3.02.52-5.33,3.15-5.33,6.32s2.3,5.8,5.33,6.32v42.77c-3.02.52-5.33,3.15-5.33,6.32s2.3,5.8,5.33,6.32v52.01c-1.81.16-3.51.71-4.99,1.59-1.78,1.06-3.26,2.56-4.29,4.36-1.01,1.75-1.57,3.78-1.57,5.93v37.79c0,5.98,4.38,10.93,10.1,11.82.59.09,1.21.14,1.84.14,6.6,0,11.95-5.35,11.95-11.96v-37.79c0-2.02-.5-3.93-1.39-5.61-1.85-3.47-5.36-5.89-9.47-6.26v-52.01c3.02-.52,5.33-3.15,5.33-6.32s-2.3-5.8-5.33-6.32v-42.77c3.02-.52,5.33-3.15,5.33-6.32s-2.3-5.8-5.33-6.32V56.23c2-.34,3.68-1.61,4.59-3.34,1.52-.28,2.66-1.61,2.66-3.2,0-1.7-1.3-3.07-2.95-3.23-1.14-1.78-3.13-2.95-5.4-2.95-1.71,0-3.25.67-4.4,1.76l-41.5-31.11c.47-.89.74-1.91.74-2.99,0-3.54-2.87-6.42-6.42-6.42s-6.42,2.87-6.42,6.42c0,.68.11,1.33.3,1.95l-20.98,11.15h-156.26c-.72,0-1.41.29-1.92.8l-21.37,21.37h-15.12c-1.8,0-3.26,1.46-3.26,3.26s1.46,3.26,3.26,3.26h14.11v11.44h-12.51v6.47l12.51,19.56h3.82c-.04.98-.07,1.97-.09,2.95-1.52.3-2.98.91-4.22,1.85-1.83,1.37-3.18,3.36-3.79,5.57-.61,2.21-.45,4.59.41,6.7.85,2.11,2.42,3.9,4.37,5.01,1.93,1.14,4.24,1.59,6.41,1.3,2.18-.31,4.24-1.34,5.68-2.92,3.02-3.09,3.18-8.18.71-10.99.91,3.58-.42,7-2.81,8.72-1.17.89-2.57,1.36-3.95,1.43-1.39.03-2.77-.29-3.88-1.07-2.28-1.49-3.32-4.43-2.53-6.93.68-2.52,3.15-4.39,5.78-4.44l2.28-.04-.05-2.19c-.04-1.65-.09-3.3-.15-4.95h3.81l12.51-19.56v-6.47h-12.51v-11.44h183.11v112.55c-11.07-40.69-48.27-70.61-92.47-70.61-31.55,0-59.54,15.25-77,38.78h-89.72v62.77c-52.92,0-95.83,42.9-95.83,95.83,0,33.99,17.7,63.84,44.38,80.86-42.82,2.16-69.21,5.1-69.21,8.35,0,6.61,109.27,11.97,244.05,11.97s244.05-5.36,244.05-11.97c0-2.16-11.64-4.18-31.99-5.93ZM409.24,330.57l13.49-13.49v26.98l-13.49-13.49ZM419.2,345.14h-24.53l12.26-12.26,12.26,12.26ZM421.51,276.64l-14.58,14.58-14.58-14.58h29.16ZM392.35,273.37l14.58-14.58,14.58,14.58h-29.16ZM422.73,280.03v26.98l-13.49-13.49,13.49-13.49ZM409.24,256.48l13.49-13.49v26.98l-13.49-13.49ZM421.51,202.55l-14.58,14.58-14.58-14.58h29.16ZM392.35,199.29l14.58-14.58,14.58,14.58h-29.16ZM422.73,205.95v26.98l-13.49-13.49,13.49-13.49ZM409.24,182.4l13.49-13.49v26.98l-13.49-13.49ZM421.51,128.47l-14.58,14.58-14.58-14.58h29.16ZM392.35,125.21l14.58-14.58,14.58,14.58h-29.16ZM422.73,131.87v26.98l-13.49-13.49,13.49-13.49ZM409.24,108.32l13.49-13.49v26.98l-13.49-13.49ZM406.93,106.01l-15.71-15.71v-1.01l15.71-15.71,15.8,15.8v.82l-15.8,15.8ZM409.24,71.28l13.49-13.49v26.98l-13.49-13.49ZM406.93,68.97l-15.71-15.71v-.31h31.51v.22l-15.8,15.8ZM404.62,71.28l-13.4,13.4v-26.8l13.4,13.4ZM404.62,108.32l-13.4,13.4v-26.8l13.4,13.4ZM404.62,145.36l-13.4,13.4v-26.8l13.4,13.4ZM406.93,147.67l15.8,15.8v.82l-15.8,15.8-15.71-15.71v-1.01l15.71-15.71ZM404.62,182.4l-13.4,13.4v-26.8l13.4,13.4ZM404.62,219.44l-13.4,13.4v-26.8l13.4,13.4ZM406.93,221.75l15.8,15.8v.82l-15.8,15.8-15.71-15.71v-1.01l15.71-15.71ZM404.62,256.48l-13.4,13.4v-26.8l13.4,13.4ZM404.62,293.53l-13.4,13.4v-26.8l13.4,13.4ZM406.93,295.83l15.8,15.8v.82l-15.8,15.8-15.71-15.71v-1.01l15.71-15.71ZM404.62,330.57l-13.4,13.4v-26.8l13.4,13.4ZM393.43,15.03c1.17,1.54,3.02,2.54,5.11,2.54,1.68,0,3.2-.65,4.34-1.7l40.76,30.55h-18.2l-21.37-21.37c-.51-.51-1.2-.8-1.92-.8h-26.06l17.35-9.22ZM200.5,64.38h-7.45v-11.44h7.45v11.44ZM199.59,46.42l16.25-16.25,16.25,16.25h-32.49ZM236.69,46.42l-16.73-16.73h36.93l-16.72,16.73h-3.48ZM244.79,46.42l16.72-16.73h.58l16.73,16.73h-34.03ZM283.43,46.42l-16.73-16.73h36.93l-16.72,16.73h-3.48ZM291.53,46.42l16.72-16.73h.58l16.73,16.73h-34.03ZM330.17,46.42l-16.73-16.72h36.92l-16.72,16.72h-3.47ZM338.27,46.42l16.72-16.73h.58l16.73,16.73h-34.03ZM376.91,46.42l-16.73-16.73h36.92l-16.72,16.73h-3.47ZM385,46.42l16.37-16.37,16.37,16.37h-32.74Z"/>
    <g>
      <g>
        <rect class="st11" x="209" y="319.96" width="83.23" height="60.67"/>
        <path class="st10" d="M292.23,319.96v60.67h-28.43v-22.96c0-5.39-1.82-10.34-4.88-14.29-4.27-5.51-10.95-9.06-18.47-9.06h-31.46v-14.36h83.23Z"/>
        <path class="st11" d="M325.07,371.02v6.22c0,1.88-2.02,3.39-4.52,3.39h-140.54c-2.49,0-4.52-1.51-4.52-3.39v-6.22c0-1.87,2.03-3.39,4.52-3.39h140.54c1.1,0,2.13.3,2.91.79.99.62,1.62,1.56,1.62,2.6Z"/>
      </g>
      <path class="st11" d="M394.3,324.71H106.93c-5.46,0-9.88-4.42-9.88-9.88v-176.31c0-5.46,4.42-9.88,9.88-9.88h287.37c2.73,0,5.2,1.11,6.99,2.89,1.79,1.79,2.89,4.26,2.89,6.99v176.31c0,5.46-4.42,9.88-9.88,9.88Z"/>
      <rect class="st3" x="109.06" y="139.82" width="283.12" height="173.71"/>
      <g>
        <path class="st11" d="M385.15,309.9h0c-1.57,0-2.84-1.27-2.84-2.84v-134.8c0-1.57,1.27-2.84,2.84-2.84h0c.72,0,1.37.26,1.87.7.6.52.98,1.29.98,2.14v134.8c0,1.57-1.27,2.84-2.84,2.84Z"/>
        <path class="st8" d="M385.15,231.44h0c-.9,0-1.64-.73-1.64-1.64v-7.23c0-.9.73-1.64,1.64-1.64h0c.45,0,.86.18,1.16.48s.48.71.48,1.16v7.23c0,.9-.73,1.64-1.64,1.64Z"/>
      </g>
      <g>
        <rect class="st11" x="302.7" y="176.83" width="71.1" height="124.95"/>
        <rect class="st8" x="308.44" y="182.26" width="59.62" height="10.69"/>
        <rect class="st8" x="308.44" y="197.68" width="59.62" height="4.23"/>
        <rect class="st8" x="308.44" y="205.77" width="59.62" height="4.23"/>
        <rect class="st8" x="308.44" y="213.86" width="59.62" height="4.23"/>
        <rect class="st8" x="308.44" y="221.96" width="59.62" height="4.23"/>
        <rect class="st8" x="308.44" y="230.05" width="59.62" height="4.23"/>
        <rect class="st8" x="308.44" y="238.14" width="59.62" height="4.23"/>
        <rect class="st8" x="308.44" y="246.24" width="59.62" height="4.23"/>
        <rect class="st8" x="308.44" y="254.33" width="59.62" height="4.23"/>
        <rect class="st8" x="308.44" y="262.42" width="59.62" height="4.23"/>
        <rect class="st8" x="308.44" y="270.52" width="59.62" height="4.23"/>
        <rect class="st8" x="308.44" y="278.61" width="59.62" height="4.23"/>
        <rect class="st8" x="308.44" y="286.7" width="59.62" height="4.23"/>
      </g>
      <rect class="st11" x="118.1" y="176.83" width="166.43" height="36.03"/>
      <rect class="st11" x="118.1" y="224.07" width="79.36" height="79.36"/>
      <rect class="st2" x="109.05" y="139.82" width="283.13" height="25.96"/>
      <path class="st3" d="M366.99,159.61h-60.62c-3.76,0-6.81-3.05-6.81-6.81h0c0-2.28,1.12-4.3,2.85-5.54,1.12-.8,2.48-1.27,3.96-1.27h60.62c3.76,0,6.81,3.05,6.81,6.81h0c0,2.02-.88,3.83-2.28,5.08-1.2,1.08-2.79,1.73-4.53,1.73Z"/>
      <g>
        <path class="st2" d="M306.41,156.28c-.95,0-1.9-.36-2.62-1.09-1.45-1.45-1.45-3.8,0-5.25,1.45-1.45,3.8-1.45,5.25,0s1.45,3.8,0,5.25c-.72.72-1.67,1.09-2.62,1.09ZM306.41,150.29c-.58,0-1.17.22-1.61.67-.89.89-.89,2.34,0,3.22s2.34.89,3.23,0,.89-2.34,0-3.22c-.44-.45-1.03-.67-1.61-.67Z"/>
        <path class="st2" d="M311.4,158.27c-.18,0-.37-.07-.5-.21l-2.79-2.79c-.28-.28-.28-.73,0-1.01s.73-.28,1.01,0l2.79,2.79c.28.28.28.73,0,1.01-.14.14-.32.21-.5.21Z"/>
      </g>
      <path class="st3" d="M133.41,152.8c0,3.76-3.05,6.81-6.81,6.81s-6.81-3.05-6.81-6.81,3.05-6.81,6.81-6.81,6.81,3.05,6.81,6.81Z"/>
      <path class="st3" d="M156.51,152.8c0,3.76-3.05,6.81-6.81,6.81s-6.81-3.05-6.81-6.81,3.05-6.81,6.81-6.81,6.81,3.05,6.81,6.81Z"/>
      <path class="st3" d="M179.6,152.8c0,3.76-3.05,6.81-6.81,6.81s-6.81-3.05-6.81-6.81,3.05-6.81,6.81-6.81,6.81,3.05,6.81,6.81Z"/>
    </g>
    <g>
      <g>
        <g>
          <g>
            <path class="st5" d="M428.79,379.83h-19.48c-.5,0-.97-.23-1.28-.62-.31-.39-.42-.9-.31-1.38l23.27-100.3c.17-.74.83-1.26,1.59-1.26h19.48c.5,0,.97.23,1.28.62.31.39.42.9.31,1.38l-23.27,100.3c-.17.74-.83,1.26-1.59,1.26ZM411.36,376.56h16.13l22.52-97.03h-16.13l-22.52,97.03Z"/>
            <path class="st5" d="M449.31,291.37h-19.48c-.9,0-1.63-.73-1.63-1.63s.73-1.63,1.63-1.63h19.48c.9,0,1.63.73,1.63,1.63s-.73,1.63-1.63,1.63Z"/>
            <path class="st5" d="M446.77,302.35h-19.48c-.9,0-1.63-.73-1.63-1.63s.73-1.63,1.63-1.63h19.48c.9,0,1.63.73,1.63,1.63s-.73,1.63-1.63,1.63Z"/>
            <path class="st5" d="M444.22,313.32h-19.48c-.9,0-1.63-.73-1.63-1.63s.73-1.63,1.63-1.63h19.48c.9,0,1.63.73,1.63,1.63s-.73,1.63-1.63,1.63Z"/>
            <path class="st5" d="M441.68,324.3h-19.48c-.9,0-1.63-.73-1.63-1.63s.73-1.63,1.63-1.63h19.48c.9,0,1.63.73,1.63,1.63s-.73,1.63-1.63,1.63Z"/>
            <path class="st5" d="M439.13,335.27h-19.48c-.9,0-1.63-.73-1.63-1.63s.73-1.63,1.63-1.63h19.48c.9,0,1.63.73,1.63,1.63s-.73,1.63-1.63,1.63Z"/>
            <path class="st5" d="M436.58,346.24h-19.48c-.9,0-1.63-.73-1.63-1.63s.73-1.63,1.63-1.63h19.48c.9,0,1.63.73,1.63,1.63s-.73,1.63-1.63,1.63Z"/>
            <path class="st5" d="M434.03,357.22h-19.48c-.9,0-1.63-.73-1.63-1.63s.73-1.63,1.63-1.63h19.48c.9,0,1.63.73,1.63,1.63s-.73,1.63-1.63,1.63Z"/>
            <path class="st5" d="M431.49,368.19h-19.48c-.9,0-1.63-.73-1.63-1.63s.73-1.63,1.63-1.63h19.48c.9,0,1.63.73,1.63,1.63s-.73,1.63-1.63,1.63Z"/>
          </g>
          <path class="st5" d="M434.07,379.83h-30.05c-.9,0-1.63-.73-1.63-1.63s.73-1.63,1.63-1.63h30.05c.9,0,1.63.73,1.63,1.63s-.73,1.63-1.63,1.63Z"/>
        </g>
        <g>
          <g>
            <path class="st18" d="M476.65,379.83h-19.48c-.76,0-1.42-.52-1.59-1.26l-23.27-100.3c-.11-.48,0-.99.31-1.38.31-.39.78-.62,1.28-.62h19.48c.76,0,1.42.52,1.59,1.26l23.27,100.3c.11.48,0,.99-.31,1.38-.31.39-.78.62-1.28.62ZM458.47,376.56h16.13l-22.52-97.03h-16.13l22.52,97.03Z"/>
            <path class="st18" d="M456.13,291.37h-19.48c-.9,0-1.63-.73-1.63-1.63s.73-1.63,1.63-1.63h19.48c.9,0,1.63.73,1.63,1.63s-.73,1.63-1.63,1.63Z"/>
            <path class="st18" d="M458.68,302.35h-19.48c-.9,0-1.63-.73-1.63-1.63s.73-1.63,1.63-1.63h19.48c.9,0,1.63.73,1.63,1.63,0,.9-.73,1.63-1.63,1.63Z"/>
            <path class="st18" d="M461.22,313.32h-19.49c-.9,0-1.63-.73-1.63-1.63s.73-1.63,1.63-1.63h19.48c.9,0,1.63.73,1.63,1.63,0,.9-.73,1.63-1.63,1.63Z"/>
            <path class="st18" d="M463.77,324.3h-19.49c-.9,0-1.63-.73-1.63-1.63s.73-1.63,1.63-1.63h19.48c.9,0,1.63.73,1.63,1.63,0,.9-.73,1.63-1.63,1.63Z"/>
            <path class="st18" d="M466.32,335.27h-19.49c-.9,0-1.63-.73-1.63-1.63s.73-1.63,1.63-1.63h19.48c.9,0,1.63.73,1.63,1.63,0,.9-.73,1.63-1.63,1.63Z"/>
            <path class="st18" d="M468.86,346.24h-19.48c-.9,0-1.63-.73-1.63-1.63s.73-1.63,1.63-1.63h19.48c.9,0,1.63.73,1.63,1.63s-.73,1.63-1.63,1.63Z"/>
            <path class="st18" d="M471.41,357.22h-19.48c-.9,0-1.63-.73-1.63-1.63s.73-1.63,1.63-1.63h19.48c.9,0,1.63.73,1.63,1.63s-.73,1.63-1.63,1.63Z"/>
            <path class="st18" d="M473.96,368.19h-19.48c-.9,0-1.63-.73-1.63-1.63s.73-1.63,1.63-1.63h19.48c.9,0,1.63.73,1.63,1.63s-.73,1.63-1.63,1.63Z"/>
          </g>
          <path class="st18" d="M481.94,379.83h-30.05c-.9,0-1.63-.73-1.63-1.63s.73-1.63,1.63-1.63h30.05c.9,0,1.63.73,1.63,1.63s-.73,1.63-1.63,1.63Z"/>
        </g>
      </g>
      <g>
        <path class="st1" d="M444.65,174.32s-5.23,10.19,1.24,12.14v3.19l6.11,1.51s-.53-2.66.71-5.4c1.24-2.75,2.21-4.25,2.21-4.25,0,0,3.1-6.29-.71-8.95-3.81-2.66-8.35-1.25-9.57,1.77Z"/>
        <path class="st16" d="M445.87,175.88v2.57s1.45.25,1.28,2.35c0,0,2.7,3.8,6.1,3.8l1.51-2.83s-3.88-6.42-8.89-5.89Z"/>
        <path class="st18" d="M443.98,173.16l11.61,9.08s4.6-6.14-.61-10.68c-4.09-3.56-9.35-.86-11,1.6Z"/>
        <path class="st18" d="M443.98,173.16s-2.05-.9-2.38-.56c-.33.33,13.28,11.34,13.89,11.09.81-.33.1-1.45.1-1.45l-11.61-9.08Z"/>
        <path class="st1" d="M445.54,178.55s1.8-.63,1.9.97c.13,2.07-1.9,2.07-1.9,2.07v-3.04Z"/>
        <g>
          <polygon class="st3" points="418.07 209.54 418.07 189.08 431.51 190.11 431.51 209.54 418.07 209.54"/>
          <polygon class="st13" points="447.95 209.54 447.95 189.08 431.51 190.11 431.51 209.54 447.95 209.54"/>
        </g>
        <path class="st4" d="M433.65,225.01c.06-3.55.29-7.1.59-10.64.53-6.23,1.25-12.64,3.2-18.58.67-2.04,1.5-4.18,3.04-5.68,2.51-2.43,6.46-2.32,9.48-.99,6.63,2.93,5.91,10.38,5.36,16.4-.18,1.92-1.3,19.49-1.9,19.49,0,0-19.78,0-19.78,0Z"/>
        <path class="st15" d="M442.96,190.76c-1.96-.33-3.81.99-4.14,2.94-.54,3.21-1.22,6.54-2.98,8.97-1.84,2.55-5.15,3.08-11.43,1.84-.39-.08-.78-.16-1.17-.24-.48,1.57-.88,3.17-1.29,4.78-.18.73-.4,1.44-.62,2.16.56.12,1.12.24,1.68.35,1.6.31,4.05.8,6.75.8,4.06,0,8.7-1.09,11.88-5.47,2.67-3.68,3.59-8.12,4.24-11.99.33-1.95-.99-3.81-2.94-4.14Z"/>
        <path class="st1" d="M423.25,204.28s.04-.76-.81-1.02-4.65-.68-5.42,3.07c-.77,3.75,4.33,4.88,4.33,4.88l1.9-6.94Z"/>
        <path class="st9" d="M453.43,273.35v2.93h-13.44s.34-2.93,2.59-2.93h10.84Z"/>
        <polygon class="st15" points="453.43 225.01 453.43 273.35 447.71 273.35 446.4 250.54 446.4 232.39 442.69 232.39 443.03 253.33 445.44 273.35 440.07 273.35 434.69 252.93 433.65 225.01 453.43 225.01"/>
        <path class="st8" d="M445.44,273.35v2.93h-13.44s.34-2.93,2.59-2.93h10.84Z"/>
      </g>
    </g>
    <g>
      <g>
        <path class="st3" d="M78.55,358.41h-30.42c-.9,0-1.63-.73-1.63-1.63s.73-1.63,1.63-1.63h30.42c.9,0,1.63.73,1.63,1.63s-.73,1.63-1.63,1.63Z"/>
        <polygon class="st14" points="28.96 292.26 26.79 292.26 26.79 110.55 70.24 77.98 95.29 91.3 94.27 93.22 70.44 80.55 28.96 111.64 28.96 292.26"/>
        <g>
          <rect class="st3" x="238.78" y="110.28" width="2.18" height="12.7"/>
          <rect class="st3" x="230.88" y="110.28" width="2.18" height="12.7"/>
        </g>
        <g>
          <path class="st18" d="M48.13,372.87c-1.5,0-2.72-1.22-2.72-2.72V110.91c0-1.5,1.22-2.72,2.72-2.72s2.72,1.22,2.72,2.72v259.25c0,1.5-1.22,2.72-2.72,2.72Z"/>
          <path class="st18" d="M78.47,372.87c-1.5,0-2.72-1.22-2.72-2.72V110.91c0-1.5,1.22-2.72,2.72-2.72s2.72,1.22,2.72,2.72v259.25c0,1.5-1.22,2.72-2.72,2.72Z"/>
          <path class="st18" d="M252.34,114.17H23.7c-1.8,0-3.26-1.46-3.26-3.26s1.46-3.26,3.26-3.26h228.64c1.8,0,3.26,1.46,3.26,3.26,0,1.8-1.46,3.26-3.26,3.26Z"/>
          <path class="st18" d="M78.55,145.48c-.42,0-.84-.16-1.15-.48l-30.42-30.42c-.64-.64-.64-1.67,0-2.31.64-.64,1.67-.64,2.31,0l30.42,30.42c.64.64.64,1.67,0,2.31-.32.32-.74.48-1.15.48Z"/>
          <path class="st18" d="M48.13,145.48c-.42,0-.84-.16-1.15-.48-.64-.64-.64-1.67,0-2.31l30.42-30.42c.64-.64,1.67-.64,2.31,0,.64.64.64,1.67,0,2.31l-30.42,30.42c-.32.32-.74.48-1.15.48Z"/>
          <path class="st18" d="M78.55,175.9c-.42,0-.84-.16-1.15-.48l-30.42-30.42c-.64-.64-.64-1.67,0-2.31.64-.64,1.67-.64,2.31,0l30.42,30.42c.64.64.64,1.67,0,2.31-.32.32-.74.48-1.15.48Z"/>
          <path class="st18" d="M48.13,175.9c-.42,0-.84-.16-1.15-.48-.64-.64-.64-1.67,0-2.31l30.42-30.42c.64-.64,1.67-.64,2.31,0,.64.64.64,1.67,0,2.31l-30.42,30.42c-.32.32-.74.48-1.15.48Z"/>
          <path class="st18" d="M78.55,206.32c-.42,0-.84-.16-1.15-.48l-30.42-30.42c-.64-.64-.64-1.67,0-2.31.64-.64,1.67-.64,2.31,0l30.42,30.42c.64.64.64,1.67,0,2.31-.32.32-.74.48-1.15.48Z"/>
          <path class="st18" d="M48.13,206.32c-.42,0-.84-.16-1.15-.48-.64-.64-.64-1.67,0-2.31l30.42-30.42c.64-.64,1.67-.64,2.31,0,.64.64.64,1.67,0,2.31l-30.42,30.42c-.32.32-.74.48-1.15.48Z"/>
          <path class="st18" d="M78.55,236.74c-.42,0-.84-.16-1.15-.48l-30.42-30.42c-.64-.64-.64-1.67,0-2.31.64-.64,1.67-.64,2.31,0l30.42,30.42c.64.64.64,1.67,0,2.31-.32.32-.74.48-1.15.48Z"/>
          <path class="st18" d="M48.13,236.74c-.42,0-.84-.16-1.15-.48-.64-.64-.64-1.67,0-2.31l30.42-30.42c.64-.64,1.67-.64,2.31,0,.64.64.64,1.67,0,2.31l-30.42,30.42c-.32.32-.74.48-1.15.48Z"/>
          <path class="st18" d="M78.55,267.16c-.42,0-.84-.16-1.15-.48l-30.42-30.42c-.64-.64-.64-1.67,0-2.31.64-.64,1.67-.64,2.31,0l30.42,30.42c.64.64.64,1.67,0,2.31-.32.32-.74.48-1.15.48Z"/>
          <path class="st18" d="M48.13,267.16c-.42,0-.84-.16-1.15-.48-.64-.64-.64-1.67,0-2.31l30.42-30.42c.64-.64,1.67-.64,2.31,0,.64.64.64,1.67,0,2.31l-30.42,30.42c-.32.32-.74.48-1.15.48Z"/>
          <path class="st18" d="M78.55,297.57c-.42,0-.84-.16-1.15-.48l-30.42-30.42c-.64-.64-.64-1.67,0-2.31.64-.64,1.67-.64,2.31,0l30.42,30.42c.64.64.64,1.67,0,2.31-.32.32-.74.48-1.15.48Z"/>
          <path class="st18" d="M48.13,297.57c-.42,0-.84-.16-1.15-.48-.64-.64-.64-1.67,0-2.31l30.42-30.42c.64-.64,1.67-.64,2.31,0s.64,1.67,0,2.31l-30.42,30.42c-.32.32-.74.48-1.15.48Z"/>
          <path class="st18" d="M78.55,327.99c-.42,0-.84-.16-1.15-.48l-30.42-30.42c-.64-.64-.64-1.67,0-2.31.64-.64,1.67-.64,2.31,0l30.42,30.42c.64.64.64,1.67,0,2.31-.32.32-.74.48-1.15.48Z"/>
          <path class="st18" d="M48.13,327.99c-.42,0-.84-.16-1.15-.48-.64-.64-.64-1.67,0-2.31l30.42-30.42c.64-.64,1.67-.64,2.31,0s.64,1.67,0,2.31l-30.42,30.42c-.32.32-.74.48-1.15.48Z"/>
          <path class="st18" d="M78.55,358.41c-.42,0-.84-.16-1.15-.48l-30.42-30.42c-.64-.64-.64-1.67,0-2.31.64-.64,1.67-.64,2.31,0l30.42,30.42c.64.64.64,1.67,0,2.31-.32.32-.74.48-1.15.48Z"/>
          <path class="st18" d="M48.13,358.41c-.42,0-.84-.16-1.15-.48-.64-.64-.64-1.67,0-2.31l30.42-30.42c.64-.64,1.67-.64,2.31,0s.64,1.67,0,2.31l-30.42,30.42c-.32.32-.74.48-1.15.48Z"/>
          <path class="st18" d="M78.55,175.9h-30.42c-.9,0-1.63-.73-1.63-1.63s.73-1.63,1.63-1.63h30.42c.9,0,1.63.73,1.63,1.63s-.73,1.63-1.63,1.63Z"/>
          <path class="st18" d="M78.55,236.74h-30.42c-.9,0-1.63-.73-1.63-1.63s.73-1.63,1.63-1.63h30.42c.9,0,1.63.73,1.63,1.63s-.73,1.63-1.63,1.63Z"/>
          <path class="st18" d="M78.55,297.57h-30.42c-.9,0-1.63-.73-1.63-1.63s.73-1.63,1.63-1.63h30.42c.9,0,1.63.73,1.63,1.63s-.73,1.63-1.63,1.63Z"/>
          <path class="st18" d="M239.64,113.82c-.7,0-1.39-.27-1.92-.8l-18.04-18.04H68.4l-17.85,17.85c-1.06,1.06-2.79,1.06-3.85,0-1.06-1.06-1.06-2.78,0-3.85l18.65-18.65c.51-.51,1.2-.8,1.92-.8h153.53c.72,0,1.41.29,1.92.8l18.84,18.84c1.06,1.06,1.06,2.78,0,3.85-.53.53-1.23.8-1.93.8Z"/>
          <path class="st18" d="M86.56,113.18c-.42,0-.84-.16-1.15-.48l-19.29-19.29c-.64-.64-.64-1.67,0-2.31.64-.64,1.67-.64,2.31,0l18.14,18.14,17.94-17.94c.64-.64,1.67-.64,2.31,0,.64.64.64,1.67,0,2.31l-19.09,19.09c-.32.32-.73.48-1.15.48Z"/>
          <path class="st18" d="M124.94,113.18c-.42,0-.84-.16-1.15-.48l-19.29-19.29c-.64-.64-.64-1.67,0-2.31.64-.64,1.67-.64,2.31,0l18.14,18.14,17.94-17.94c.64-.64,1.67-.64,2.31,0,.64.64.64,1.67,0,2.31l-19.09,19.09c-.32.32-.73.48-1.15.48Z"/>
          <path class="st18" d="M163.33,113.18c-.42,0-.84-.16-1.15-.48l-19.29-19.29c-.64-.64-.64-1.67,0-2.31.64-.64,1.67-.64,2.31,0l18.14,18.14,17.94-17.94c.64-.64,1.67-.64,2.31,0,.64.64.64,1.67,0,2.31l-19.09,19.09c-.32.32-.74.48-1.15.48Z"/>
          <path class="st18" d="M201.71,113.18c-.42,0-.84-.16-1.15-.48l-19.29-19.29c-.64-.64-.64-1.67,0-2.31.64-.64,1.67-.64,2.31,0l18.14,18.14,17.94-17.94c.64-.64,1.67-.64,2.31,0,.64.64.64,1.67,0,2.31l-19.09,19.09c-.32.32-.74.48-1.15.48Z"/>
        </g>
        <g>
          <path class="st18" d="M244.28,152.88c-.5-1.81-1.61-3.45-3.11-4.58-1.02-.77-2.22-1.27-3.46-1.52-.04-1.67-.1-3.34-.2-5.01h-3.17c-.14,2.21-.19,4.43-.24,6.64l-.04,1.8,1.88.03c2.16.04,4.18,1.57,4.75,3.64.64,2.06-.21,4.47-2.08,5.69-.91.64-2.04.9-3.19.88-1.13-.06-2.28-.44-3.24-1.17-1.96-1.41-3.06-4.23-2.31-7.16-2.03,2.31-1.9,6.49.59,9.03,1.18,1.3,2.87,2.14,4.66,2.4,1.79.24,3.68-.13,5.27-1.07,1.6-.91,2.89-2.38,3.58-4.11.71-1.73.84-3.69.34-5.5Z"/>
          <polygon class="st0" points="251.03 122.98 251.03 128.29 240.76 144.35 231.07 144.35 220.8 128.29 220.8 122.98 251.03 122.98"/>
        </g>
        <g>
          <path class="st18" d="M33.14,111.1c0,2.91-2.36,5.27-5.27,5.27s-5.27-2.36-5.27-5.27,2.36-5.27,5.27-5.27c2.91,0,5.27,2.36,5.27,5.27Z"/>
          <path class="st4" d="M29.84,111.1c0,1.08-.88,1.96-1.96,1.96s-1.96-.88-1.96-1.96.88-1.96,1.96-1.96c1.09,0,1.96.88,1.96,1.96Z"/>
        </g>
        <g>
          <path class="st18" d="M75.5,79.27c0,2.91-2.36,5.27-5.27,5.27s-5.27-2.36-5.27-5.27,2.36-5.27,5.27-5.27,5.27,2.36,5.27,5.27Z"/>
          <path class="st4" d="M72.19,79.27c0,1.08-.88,1.96-1.96,1.96s-1.96-.88-1.96-1.96.88-1.96,1.96-1.96,1.96.88,1.96,1.96Z"/>
        </g>
        <g>
          <path class="st18" d="M33.14,187.39c0,2.91-2.36,5.27-5.27,5.27s-5.27-2.36-5.27-5.27,2.36-5.27,5.27-5.27c2.91,0,5.27,2.36,5.27,5.27Z"/>
          <path class="st4" d="M29.84,187.39c0,1.08-.88,1.96-1.96,1.96s-1.96-.88-1.96-1.96.88-1.96,1.96-1.96c1.09,0,1.96.88,1.96,1.96Z"/>
        </g>
        <g>
          <path class="st18" d="M33.14,232.89c0,2.91-2.36,5.27-5.27,5.27s-5.27-2.36-5.27-5.27,2.36-5.27,5.27-5.27c2.91,0,5.27,2.36,5.27,5.27Z"/>
          <path class="st4" d="M29.84,232.89c0,1.08-.88,1.96-1.96,1.96s-1.96-.88-1.96-1.96.88-1.96,1.96-1.96c1.09,0,1.96.88,1.96,1.96Z"/>
        </g>
        <path class="st12" d="M37.68,290.54v31.04c0,4.91-3.6,8.97-8.3,9.7-.49.07-.99.12-1.51.12-5.42,0-9.81-4.39-9.81-9.82v-31.04c0-1.66.41-3.23,1.14-4.6,1.65-3.1,4.91-5.21,8.67-5.21,1.82,0,3.53.5,4.99,1.36,1.46.87,2.68,2.11,3.52,3.58.82,1.44,1.29,3.1,1.29,4.87Z"/>
        <path class="st6" d="M30.54,295.63v31.04c0,1.67-.41,3.24-1.15,4.61-.49.07-.99.12-1.51.12-5.42,0-9.81-4.39-9.81-9.82v-31.04c0-1.66.41-3.23,1.14-4.6.49-.07.99-.12,1.51-.12,1.82,0,3.53.5,4.99,1.36,1.46.87,2.69,2.09,3.52,3.58.82,1.43,1.3,3.09,1.3,4.87Z"/>
        <rect class="st6" x="18.06" y="353.53" width="90.54" height="28.17"/>
        <path class="st7" d="M251.03,122.98v5.31l-10.27,16.06h-1.69v-5.9c0-5.61-4.55-10.16-10.16-10.16h-8.11v-5.31h30.23Z"/>
        <path class="st12" d="M108.6,353.53v28.17h-22.46c0-2.6-.57-5.07-1.61-7.28-1.04-2.22-2.52-4.17-4.34-5.76-3.03-2.62-6.98-4.22-11.31-4.22H18.06v-10.91h90.54Z"/>
      </g>
      <g>
        <path class="st16" d="M235.39,192.41c-.3,0-.54-.24-.54-.54v-31.4c0-.3.24-.54.54-.54s.54.24.54.54v31.4c0,.3-.24.54-.54.54Z"/>
        <path class="st16" d="M218.98,188.09c-.07,0-.15-.02-.22-.05-.27-.12-.4-.45-.27-.72l12.91-28.62c.12-.27.44-.4.72-.27.27.12.4.45.27.72l-12.91,28.62c-.09.2-.29.32-.5.32Z"/>
        <path class="st16" d="M251.96,188.09c-.21,0-.4-.12-.5-.32l-12.91-28.62c-.12-.27,0-.6.27-.72.28-.13.6,0,.72.27l12.91,28.62c.12.27,0,.6-.27.72-.07.03-.15.05-.22.05Z"/>
        <g>
          <rect class="st15" x="192.84" y="193.38" width="97.99" height="97.99" transform="translate(-14.09 469.83) rotate(-86.69)"/>
          <rect class="st2" x="184.59" y="183.12" width="97.99" height="97.99" transform="translate(-11.62 451.92) rotate(-86.69)"/>
          <path class="st3" d="M275.4,279.04l-.54-.03-88.16-5.09,5.12-88.71,88.71,5.12-.03.54-5.09,88.16ZM187.84,272.89l86.53,5,5-86.53-86.53-5-5,86.53Z"/>
          <polygon class="st3" points="188.93 244.61 225.79 211.78 275.76 263.31 274.88 278.46 187.27 273.4 188.93 244.61"/>
          <polygon class="st3" points="276.78 245.71 274.88 278.46 216.39 275.08 217.52 255.46 254.39 222.62 276.78 245.71"/>
          <path class="st3" d="M251.62,206.26c-.22,3.86-3.53,6.8-7.39,6.58-3.86-.22-6.8-3.53-6.58-7.39.22-3.86,3.53-6.8,7.39-6.58,3.86.22,6.8,3.53,6.58,7.39Z"/>
        </g>
      </g>
    </g>
  </g>
</svg>