<?xml version="1.0" encoding="UTF-8"?>
<svg id="Camada_1" xmlns="http://www.w3.org/2000/svg" version="1.1" viewBox="0 0 500 398.17">
  <!-- Generator: Adobe Illustrator 30.2.1, SVG Export Plug-In . SVG Version: 2.1.1 Build 1)  -->
  <defs>
    <style>
      .st0 {
        fill: #d0493a;
      }

      .st1 {
        fill: #e6c4a4;
      }

      .st2 {
        fill: #4a6eaa;
      }

      .st3 {
        fill: #fff;
      }

      .st4 {
        fill: #c37a30;
      }

      .st5 {
        fill: #b7820b;
      }

      .st6 {
        fill: #515860;
      }

      .st7 {
        fill: #b23228;
      }

      .st8 {
        fill: #b5b8ba;
      }

      .st9 {
        fill: #74787a;
      }

      .st10 {
        fill: #bbbbbc;
      }

      .st11 {
        fill: #cccdce;
      }

      .st12 {
        fill: #5d646b;
      }

      .st13 {
        fill: #dbd9d7;
      }

      .st14 {
        fill: #a67458;
      }

      .st15 {
        fill: #a5a5a5;
      }

      .st16 {
        fill: #2e333b;
      }

      .st17 {
        fill: #1890ff;
      }

      .st18 {
        fill: #edb732;
      }
    </style>
  </defs>
  <g id="OBJECTS">
    <path class="st17" d="M462.08,375.52v-30.4h-33.89V52.93h16.29c.92,1.71,2.59,2.94,4.57,3.28v80.28c-3.02.52-5.33,3.15-5.33,6.32s2.3,5.8,5.33,6.32v42.77c-3.02.52-5.33,3.15-5.33,6.32s2.3,5.8,5.33,6.32v52.01c-1.81.16-3.51.71-4.99,1.59-1.78,1.06-3.26,2.56-4.29,4.36-1.01,1.75-1.57,3.78-1.57,5.93v37.79c0,5.98,4.38,10.93,10.1,11.82.59.09,1.21.14,1.84.14,6.6,0,11.95-5.35,11.95-11.96v-37.79c0-2.02-.5-3.93-1.39-5.61-1.85-3.47-5.36-5.89-9.47-6.26v-52.01c3.02-.52,5.33-3.15,5.33-6.32s-2.3-5.8-5.33-6.32v-42.77c3.02-.52,5.33-3.15,5.33-6.32s-2.3-5.8-5.33-6.32V56.21c2-.34,3.68-1.61,4.59-3.34,1.52-.28,2.66-1.61,2.66-3.2,0-1.7-1.3-3.07-2.95-3.23-1.14-1.78-3.13-2.95-5.4-2.95-1.71,0-3.25.67-4.4,1.76l-41.5-31.11c.47-.89.74-1.91.74-2.99,0-3.54-2.87-6.42-6.42-6.42s-6.42,2.87-6.42,6.42c0,.68.11,1.33.3,1.95l-20.98,11.15h-156.26c-.72,0-1.41.29-1.92.8l-21.37,21.37h-15.12c-1.8,0-3.26,1.46-3.26,3.26s1.46,3.26,3.26,3.26h14.11v11.44h-12.51v6.47l12.51,19.56h3.82c-.04.98-.07,1.97-.09,2.95-1.52.3-2.98.91-4.22,1.85-1.83,1.37-3.18,3.36-3.79,5.57s-.45,4.59.41,6.7c.85,2.11,2.42,3.9,4.37,5.01,1.93,1.14,4.24,1.59,6.41,1.3,2.18-.31,4.24-1.34,5.68-2.92,3.02-3.09,3.18-8.18.71-10.99.91,3.58-.42,7-2.81,8.72-1.17.89-2.57,1.36-3.95,1.43-1.39.03-2.77-.29-3.88-1.07-2.28-1.49-3.32-4.43-2.53-6.93.68-2.52,3.15-4.39,5.78-4.44l2.28-.04-.05-2.19c-.04-1.65-.09-3.3-.15-4.95h3.81l12.51-19.56v-6.47h-12.51v-11.44h183.11v112.55c-11.07-40.69-48.27-70.61-92.47-70.61-31.55,0-59.54,15.25-77,38.78h-89.72v62.77c-52.92,0-95.83,42.9-95.83,95.83,0,33.99,17.7,63.84,44.38,80.86-42.82,2.16-69.21,5.1-69.21,8.35,0,6.61,109.27,11.97,244.05,11.97s244.05-5.36,244.05-11.97c0-2.16-11.64-4.18-31.99-5.93l.02-.02h0ZM409.26,330.55l13.49-13.49v26.98l-13.49-13.49h0ZM419.22,345.12h-24.53l12.26-12.26,12.26,12.26h0ZM421.53,276.62l-14.58,14.58-14.58-14.58h29.16,0ZM392.37,273.35l14.58-14.58,14.58,14.58h-29.16,0ZM422.75,280.01v26.98l-13.49-13.49,13.49-13.49h0ZM409.26,256.46l13.49-13.49v26.98l-13.49-13.49ZM421.53,202.53l-14.58,14.58-14.58-14.58h29.16,0ZM392.37,199.27l14.58-14.58,14.58,14.58h-29.16,0ZM422.75,205.93v26.98l-13.49-13.49,13.49-13.49h0ZM409.26,182.38l13.49-13.49v26.98l-13.49-13.49h0ZM421.53,128.45l-14.58,14.58-14.58-14.58h29.16,0ZM392.37,125.19l14.58-14.58,14.58,14.58h-29.16,0ZM422.75,131.85v26.98l-13.49-13.49,13.49-13.49h0ZM409.26,108.3l13.49-13.49v26.98s-13.49-13.49-13.49-13.49ZM406.95,105.99l-15.71-15.71v-1.01l15.71-15.71,15.8,15.8v.82l-15.8,15.8h0ZM409.26,71.26l13.49-13.49v26.98l-13.49-13.49ZM406.95,68.95l-15.71-15.71v-.31h31.51v.22l-15.8,15.8h0ZM404.64,71.26l-13.4,13.4v-26.8l13.4,13.4ZM404.64,108.3l-13.4,13.4v-26.8s13.4,13.4,13.4,13.4ZM404.64,145.34l-13.4,13.4v-26.8l13.4,13.4h0ZM406.95,147.65l15.8,15.8v.82l-15.8,15.8-15.71-15.71v-1.01l15.71-15.71h0ZM404.64,182.38l-13.4,13.4v-26.8l13.4,13.4h0ZM404.64,219.42l-13.4,13.4v-26.8l13.4,13.4h0ZM406.95,221.73l15.8,15.8v.82l-15.8,15.8-15.71-15.71v-1.01l15.71-15.71h0ZM404.64,256.46l-13.4,13.4v-26.8l13.4,13.4ZM404.64,293.51l-13.4,13.4v-26.8l13.4,13.4ZM406.95,295.81l15.8,15.8v.82l-15.8,15.8-15.71-15.71v-1.01l15.71-15.71h0ZM404.64,330.55l-13.4,13.4v-26.8l13.4,13.4ZM393.45,15.01c1.17,1.54,3.02,2.54,5.11,2.54,1.68,0,3.2-.65,4.34-1.7l40.76,30.55h-18.2l-21.37-21.37c-.51-.51-1.2-.8-1.92-.8h-26.06l17.35-9.22h0ZM200.52,64.36h-7.45v-11.44h7.45v11.44ZM199.61,46.4l16.25-16.25,16.25,16.25h-32.5ZM236.71,46.4l-16.73-16.73h36.93l-16.72,16.73h-3.48ZM244.81,46.4l16.72-16.73h.58l16.73,16.73h-34.03ZM283.45,46.4l-16.73-16.73h36.93l-16.72,16.73h-3.48,0ZM291.55,46.4l16.72-16.73h.58l16.73,16.73h-34.03ZM330.19,46.4l-16.73-16.72h36.92l-16.72,16.72h-3.47ZM338.29,46.4l16.72-16.73h.58l16.73,16.73h-34.03ZM376.93,46.4l-16.73-16.73h36.92l-16.72,16.73h-3.47ZM385.02,46.4l16.37-16.37,16.37,16.37h-32.74Z"/>
    <g>
      <g>
        <rect class="st11" x="209.02" y="319.94" width="83.23" height="60.67"/>
        <path class="st10" d="M292.25,319.94v60.67h-28.43v-22.96c0-5.39-1.82-10.34-4.88-14.29-4.27-5.51-10.95-9.06-18.47-9.06h-31.46v-14.36h83.24Z"/>
        <path class="st11" d="M325.09,371v6.22c0,1.88-2.02,3.39-4.52,3.39h-140.54c-2.49,0-4.52-1.51-4.52-3.39v-6.22c0-1.87,2.03-3.39,4.52-3.39h140.54c1.1,0,2.13.3,2.91.79.99.62,1.62,1.56,1.62,2.6h-.01Z"/>
      </g>
      <path class="st11" d="M394.32,324.69H106.95c-5.46,0-9.88-4.42-9.88-9.88v-176.31c0-5.46,4.42-9.88,9.88-9.88h287.37c2.73,0,5.2,1.11,6.99,2.89,1.79,1.79,2.89,4.26,2.89,6.99v176.31c0,5.46-4.42,9.88-9.88,9.88Z"/>
      <rect class="st3" x="109.08" y="139.8" width="283.12" height="173.71"/>
      <g>
        <path class="st11" d="M385.17,309.88h0c-1.57,0-2.84-1.27-2.84-2.84v-134.8c0-1.57,1.27-2.84,2.84-2.84h0c.72,0,1.37.26,1.87.7.6.52.98,1.29.98,2.14v134.8c0,1.57-1.27,2.84-2.84,2.84h-.01Z"/>
        <path class="st8" d="M385.17,231.42h0c-.9,0-1.64-.73-1.64-1.64v-7.23c0-.9.73-1.64,1.64-1.64h0c.45,0,.86.18,1.16.48s.48.71.48,1.16v7.23c0,.9-.73,1.64-1.64,1.64Z"/>
      </g>
      <g>
        <rect class="st11" x="302.72" y="176.81" width="71.1" height="124.95"/>
        <rect class="st8" x="308.46" y="182.24" width="59.62" height="10.69"/>
        <rect class="st8" x="308.46" y="197.66" width="59.62" height="4.23"/>
        <rect class="st8" x="308.46" y="205.75" width="59.62" height="4.23"/>
        <rect class="st8" x="308.46" y="213.84" width="59.62" height="4.23"/>
        <rect class="st8" x="308.46" y="221.94" width="59.62" height="4.23"/>
        <rect class="st8" x="308.46" y="230.03" width="59.62" height="4.23"/>
        <rect class="st8" x="308.46" y="238.12" width="59.62" height="4.23"/>
        <rect class="st8" x="308.46" y="246.22" width="59.62" height="4.23"/>
        <rect class="st8" x="308.46" y="254.31" width="59.62" height="4.23"/>
        <rect class="st8" x="308.46" y="262.4" width="59.62" height="4.23"/>
        <rect class="st8" x="308.46" y="270.5" width="59.62" height="4.23"/>
        <rect class="st8" x="308.46" y="278.59" width="59.62" height="4.23"/>
        <rect class="st8" x="308.46" y="286.68" width="59.62" height="4.23"/>
      </g>
      <rect class="st11" x="118.12" y="176.81" width="166.43" height="36.03"/>
      <rect class="st11" x="118.12" y="224.05" width="79.36" height="79.36"/>
      <rect class="st2" x="109.07" y="139.8" width="283.13" height="25.96"/>
      <path class="st3" d="M367.01,159.59h-60.62c-3.76,0-6.81-3.05-6.81-6.81h0c0-2.28,1.12-4.3,2.85-5.54,1.12-.8,2.48-1.27,3.96-1.27h60.62c3.76,0,6.81,3.05,6.81,6.81h0c0,2.02-.88,3.83-2.28,5.08-1.2,1.08-2.79,1.73-4.53,1.73Z"/>
      <g>
        <path class="st2" d="M306.43,156.26c-.95,0-1.9-.36-2.62-1.09-1.45-1.45-1.45-3.8,0-5.25s3.8-1.45,5.25,0,1.45,3.8,0,5.25c-.72.72-1.67,1.09-2.62,1.09h-.01ZM306.43,150.27c-.58,0-1.17.22-1.61.67-.89.89-.89,2.34,0,3.22s2.34.89,3.23,0,.89-2.34,0-3.22c-.44-.45-1.03-.67-1.61-.67h-.01Z"/>
        <path class="st2" d="M311.42,158.25c-.18,0-.37-.07-.5-.21l-2.79-2.79c-.28-.28-.28-.73,0-1.01s.73-.28,1.01,0l2.79,2.79c.28.28.28.73,0,1.01-.14.14-.32.21-.5.21h-.01Z"/>
      </g>
      <path class="st3" d="M133.43,152.78c0,3.76-3.05,6.81-6.81,6.81s-6.81-3.05-6.81-6.81,3.05-6.81,6.81-6.81,6.81,3.05,6.81,6.81Z"/>
      <path class="st3" d="M156.53,152.78c0,3.76-3.05,6.81-6.81,6.81s-6.81-3.05-6.81-6.81,3.05-6.81,6.81-6.81,6.81,3.05,6.81,6.81Z"/>
      <path class="st3" d="M179.62,152.78c0,3.76-3.05,6.81-6.81,6.81s-6.81-3.05-6.81-6.81,3.05-6.81,6.81-6.81,6.81,3.05,6.81,6.81Z"/>
    </g>
    <g>
      <g>
        <g>
          <g>
            <path class="st5" d="M428.81,379.81h-19.48c-.5,0-.97-.23-1.28-.62-.31-.39-.42-.9-.31-1.38l23.27-100.3c.17-.74.83-1.26,1.59-1.26h19.48c.5,0,.97.23,1.28.62.31.39.42.9.31,1.38l-23.27,100.3c-.17.74-.83,1.26-1.59,1.26h0ZM411.38,376.54h16.13l22.52-97.03h-16.13l-22.52,97.03Z"/>
            <path class="st5" d="M449.33,291.35h-19.48c-.9,0-1.63-.73-1.63-1.63s.73-1.63,1.63-1.63h19.48c.9,0,1.63.73,1.63,1.63s-.73,1.63-1.63,1.63Z"/>
            <path class="st5" d="M446.79,302.33h-19.48c-.9,0-1.63-.73-1.63-1.63s.73-1.63,1.63-1.63h19.48c.9,0,1.63.73,1.63,1.63s-.73,1.63-1.63,1.63Z"/>
            <path class="st5" d="M444.24,313.3h-19.48c-.9,0-1.63-.73-1.63-1.63s.73-1.63,1.63-1.63h19.48c.9,0,1.63.73,1.63,1.63s-.73,1.63-1.63,1.63Z"/>
            <path class="st5" d="M441.7,324.28h-19.48c-.9,0-1.63-.73-1.63-1.63s.73-1.63,1.63-1.63h19.48c.9,0,1.63.73,1.63,1.63s-.73,1.63-1.63,1.63Z"/>
            <path class="st5" d="M439.15,335.25h-19.48c-.9,0-1.63-.73-1.63-1.63s.73-1.63,1.63-1.63h19.48c.9,0,1.63.73,1.63,1.63s-.73,1.63-1.63,1.63Z"/>
            <path class="st5" d="M436.6,346.22h-19.48c-.9,0-1.63-.73-1.63-1.63s.73-1.63,1.63-1.63h19.48c.9,0,1.63.73,1.63,1.63s-.73,1.63-1.63,1.63Z"/>
            <path class="st5" d="M434.05,357.2h-19.48c-.9,0-1.63-.73-1.63-1.63s.73-1.63,1.63-1.63h19.48c.9,0,1.63.73,1.63,1.63s-.73,1.63-1.63,1.63Z"/>
            <path class="st5" d="M431.51,368.17h-19.48c-.9,0-1.63-.73-1.63-1.63s.73-1.63,1.63-1.63h19.48c.9,0,1.63.73,1.63,1.63s-.73,1.63-1.63,1.63Z"/>
          </g>
          <path class="st5" d="M434.09,379.81h-30.05c-.9,0-1.63-.73-1.63-1.63s.73-1.63,1.63-1.63h30.05c.9,0,1.63.73,1.63,1.63s-.73,1.63-1.63,1.63Z"/>
        </g>
        <g>
          <g>
            <path class="st18" d="M476.67,379.81h-19.48c-.76,0-1.42-.52-1.59-1.26l-23.27-100.3c-.11-.48,0-.99.31-1.38s.78-.62,1.28-.62h19.48c.76,0,1.42.52,1.59,1.26l23.27,100.3c.11.48,0,.99-.31,1.38s-.78.62-1.28.62h0ZM458.49,376.54h16.13l-22.52-97.03h-16.13l22.52,97.03Z"/>
            <path class="st18" d="M456.15,291.35h-19.48c-.9,0-1.63-.73-1.63-1.63s.73-1.63,1.63-1.63h19.48c.9,0,1.63.73,1.63,1.63s-.73,1.63-1.63,1.63Z"/>
            <path class="st18" d="M458.7,302.33h-19.48c-.9,0-1.63-.73-1.63-1.63s.73-1.63,1.63-1.63h19.48c.9,0,1.63.73,1.63,1.63s-.73,1.63-1.63,1.63Z"/>
            <path class="st18" d="M461.24,313.3h-19.49c-.9,0-1.63-.73-1.63-1.63s.73-1.63,1.63-1.63h19.48c.9,0,1.63.73,1.63,1.63s-.73,1.63-1.63,1.63h0Z"/>
            <path class="st18" d="M463.79,324.28h-19.49c-.9,0-1.63-.73-1.63-1.63s.73-1.63,1.63-1.63h19.48c.9,0,1.63.73,1.63,1.63s-.73,1.63-1.63,1.63h0Z"/>
            <path class="st18" d="M466.34,335.25h-19.49c-.9,0-1.63-.73-1.63-1.63s.73-1.63,1.63-1.63h19.48c.9,0,1.63.73,1.63,1.63s-.73,1.63-1.63,1.63h0Z"/>
            <path class="st18" d="M468.88,346.22h-19.48c-.9,0-1.63-.73-1.63-1.63s.73-1.63,1.63-1.63h19.48c.9,0,1.63.73,1.63,1.63s-.73,1.63-1.63,1.63Z"/>
            <path class="st18" d="M471.43,357.2h-19.48c-.9,0-1.63-.73-1.63-1.63s.73-1.63,1.63-1.63h19.48c.9,0,1.63.73,1.63,1.63s-.73,1.63-1.63,1.63Z"/>
            <path class="st18" d="M473.98,368.17h-19.48c-.9,0-1.63-.73-1.63-1.63s.73-1.63,1.63-1.63h19.48c.9,0,1.63.73,1.63,1.63s-.73,1.63-1.63,1.63Z"/>
          </g>
          <path class="st18" d="M481.96,379.81h-30.05c-.9,0-1.63-.73-1.63-1.63s.73-1.63,1.63-1.63h30.05c.9,0,1.63.73,1.63,1.63s-.73,1.63-1.63,1.63Z"/>
        </g>
      </g>
      <g>
        <path class="st1" d="M444.67,174.3s-5.23,10.19,1.24,12.14v3.19l6.11,1.51s-.53-2.66.71-5.4c1.24-2.75,2.21-4.25,2.21-4.25,0,0,3.1-6.29-.71-8.95s-8.35-1.25-9.57,1.77h.01Z"/>
        <path class="st16" d="M445.89,175.86v2.57s1.45.25,1.28,2.35c0,0,2.7,3.8,6.1,3.8l1.51-2.83s-3.88-6.42-8.89-5.89h0Z"/>
        <path class="st18" d="M444,173.14l11.61,9.08s4.6-6.14-.61-10.68c-4.09-3.56-9.35-.86-11,1.6h0Z"/>
        <path class="st18" d="M444,173.14s-2.05-.9-2.38-.56c-.33.33,13.28,11.34,13.89,11.09.81-.33.1-1.45.1-1.45l-11.61-9.08h0Z"/>
        <path class="st1" d="M445.56,178.53s1.8-.63,1.9.97c.13,2.07-1.9,2.07-1.9,2.07v-3.04h0Z"/>
        <g>
          <polygon class="st3" points="418.09 209.52 418.09 189.06 431.53 190.09 431.53 209.52 418.09 209.52"/>
          <polygon class="st13" points="447.97 209.52 447.97 189.06 431.53 190.09 431.53 209.52 447.97 209.52"/>
        </g>
        <path class="st4" d="M433.67,224.99c.06-3.55.29-7.1.59-10.64.53-6.23,1.25-12.64,3.2-18.58.67-2.04,1.5-4.18,3.04-5.68,2.51-2.43,6.46-2.32,9.48-.99,6.63,2.93,5.91,10.38,5.36,16.4-.18,1.92-1.3,19.49-1.9,19.49h-19.78,0Z"/>
        <path class="st15" d="M442.98,190.74c-1.96-.33-3.81.99-4.14,2.94-.54,3.21-1.22,6.54-2.98,8.97-1.84,2.55-5.15,3.08-11.43,1.84-.39-.08-.78-.16-1.17-.24-.48,1.57-.88,3.17-1.29,4.78-.18.73-.4,1.44-.62,2.16.56.12,1.12.24,1.68.35,1.6.31,4.05.8,6.75.8,4.06,0,8.7-1.09,11.88-5.47,2.67-3.68,3.59-8.12,4.24-11.99.33-1.95-.99-3.81-2.94-4.14h.02Z"/>
        <path class="st1" d="M423.27,204.26s.04-.76-.81-1.02-4.65-.68-5.42,3.07c-.77,3.75,4.33,4.88,4.33,4.88l1.9-6.94h0Z"/>
        <path class="st9" d="M453.45,273.33v2.93h-13.44s.34-2.93,2.59-2.93h10.85Z"/>
        <polygon class="st15" points="453.45 224.99 453.45 273.33 447.73 273.33 446.42 250.52 446.42 232.37 442.71 232.37 443.05 253.31 445.46 273.33 440.09 273.33 434.71 252.91 433.67 224.99 453.45 224.99"/>
        <path class="st8" d="M445.46,273.33v2.93h-13.44s.34-2.93,2.59-2.93h10.85Z"/>
      </g>
    </g>
    <g>
      <g>
        <path class="st3" d="M78.57,358.39h-30.42c-.9,0-1.63-.73-1.63-1.63s.73-1.63,1.63-1.63h30.42c.9,0,1.63.73,1.63,1.63s-.73,1.63-1.63,1.63Z"/>
        <polygon class="st14" points="28.98 292.24 26.81 292.24 26.81 110.53 70.26 77.96 95.31 91.28 94.29 93.2 70.46 80.53 28.98 111.62 28.98 292.24"/>
        <g>
          <rect class="st3" x="238.8" y="110.26" width="2.18" height="12.7"/>
          <rect class="st3" x="230.9" y="110.26" width="2.18" height="12.7"/>
        </g>
        <g>
          <path class="st18" d="M48.15,372.85c-1.5,0-2.72-1.22-2.72-2.72V110.89c0-1.5,1.22-2.72,2.72-2.72s2.72,1.22,2.72,2.72v259.25c0,1.5-1.22,2.72-2.72,2.72h0Z"/>
          <path class="st18" d="M78.49,372.85c-1.5,0-2.72-1.22-2.72-2.72V110.89c0-1.5,1.22-2.72,2.72-2.72s2.72,1.22,2.72,2.72v259.25c0,1.5-1.22,2.72-2.72,2.72h0Z"/>
          <path class="st18" d="M252.36,114.15H23.72c-1.8,0-3.26-1.46-3.26-3.26s1.46-3.26,3.26-3.26h228.64c1.8,0,3.26,1.46,3.26,3.26s-1.46,3.26-3.26,3.26Z"/>
          <path class="st18" d="M78.57,145.46c-.42,0-.84-.16-1.15-.48l-30.42-30.42c-.64-.64-.64-1.67,0-2.31s1.67-.64,2.31,0l30.42,30.42c.64.64.64,1.67,0,2.31-.32.32-.74.48-1.15.48h-.01Z"/>
          <path class="st18" d="M48.15,145.46c-.42,0-.84-.16-1.15-.48-.64-.64-.64-1.67,0-2.31l30.42-30.42c.64-.64,1.67-.64,2.31,0s.64,1.67,0,2.31l-30.42,30.42c-.32.32-.74.48-1.15.48h0Z"/>
          <path class="st18" d="M78.57,175.88c-.42,0-.84-.16-1.15-.48l-30.42-30.42c-.64-.64-.64-1.67,0-2.31s1.67-.64,2.31,0l30.42,30.42c.64.64.64,1.67,0,2.31-.32.32-.74.48-1.15.48h-.01Z"/>
          <path class="st18" d="M48.15,175.88c-.42,0-.84-.16-1.15-.48-.64-.64-.64-1.67,0-2.31l30.42-30.42c.64-.64,1.67-.64,2.31,0s.64,1.67,0,2.31l-30.42,30.42c-.32.32-.74.48-1.15.48h0Z"/>
          <path class="st18" d="M78.57,206.3c-.42,0-.84-.16-1.15-.48l-30.42-30.42c-.64-.64-.64-1.67,0-2.31s1.67-.64,2.31,0l30.42,30.42c.64.64.64,1.67,0,2.31-.32.32-.74.48-1.15.48h-.01Z"/>
          <path class="st18" d="M48.15,206.3c-.42,0-.84-.16-1.15-.48-.64-.64-.64-1.67,0-2.31l30.42-30.42c.64-.64,1.67-.64,2.31,0s.64,1.67,0,2.31l-30.42,30.42c-.32.32-.74.48-1.15.48h0Z"/>
          <path class="st18" d="M78.57,236.72c-.42,0-.84-.16-1.15-.48l-30.42-30.42c-.64-.64-.64-1.67,0-2.31s1.67-.64,2.31,0l30.42,30.42c.64.64.64,1.67,0,2.31-.32.32-.74.48-1.15.48h-.01Z"/>
          <path class="st18" d="M48.15,236.72c-.42,0-.84-.16-1.15-.48-.64-.64-.64-1.67,0-2.31l30.42-30.42c.64-.64,1.67-.64,2.31,0s.64,1.67,0,2.31l-30.42,30.42c-.32.32-.74.48-1.15.48h0Z"/>
          <path class="st18" d="M78.57,267.14c-.42,0-.84-.16-1.15-.48l-30.42-30.42c-.64-.64-.64-1.67,0-2.31s1.67-.64,2.31,0l30.42,30.42c.64.64.64,1.67,0,2.31-.32.32-.74.48-1.15.48h-.01Z"/>
          <path class="st18" d="M48.15,267.14c-.42,0-.84-.16-1.15-.48-.64-.64-.64-1.67,0-2.31l30.42-30.42c.64-.64,1.67-.64,2.31,0s.64,1.67,0,2.31l-30.42,30.42c-.32.32-.74.48-1.15.48h0Z"/>
          <path class="st18" d="M78.57,297.55c-.42,0-.84-.16-1.15-.48l-30.42-30.42c-.64-.64-.64-1.67,0-2.31.64-.64,1.67-.64,2.31,0l30.42,30.42c.64.64.64,1.67,0,2.31-.32.32-.74.48-1.15.48h-.01Z"/>
          <path class="st18" d="M48.15,297.55c-.42,0-.84-.16-1.15-.48-.64-.64-.64-1.67,0-2.31l30.42-30.42c.64-.64,1.67-.64,2.31,0s.64,1.67,0,2.31l-30.42,30.42c-.32.32-.74.48-1.15.48h0Z"/>
          <path class="st18" d="M78.57,327.97c-.42,0-.84-.16-1.15-.48l-30.42-30.42c-.64-.64-.64-1.67,0-2.31.64-.64,1.67-.64,2.31,0l30.42,30.42c.64.64.64,1.67,0,2.31-.32.32-.74.48-1.15.48h-.01Z"/>
          <path class="st18" d="M48.15,327.97c-.42,0-.84-.16-1.15-.48-.64-.64-.64-1.67,0-2.31l30.42-30.42c.64-.64,1.67-.64,2.31,0s.64,1.67,0,2.31l-30.42,30.42c-.32.32-.74.48-1.15.48h0Z"/>
          <path class="st18" d="M78.57,358.39c-.42,0-.84-.16-1.15-.48l-30.42-30.42c-.64-.64-.64-1.67,0-2.31.64-.64,1.67-.64,2.31,0l30.42,30.42c.64.64.64,1.67,0,2.31-.32.32-.74.48-1.15.48h-.01Z"/>
          <path class="st18" d="M48.15,358.39c-.42,0-.84-.16-1.15-.48-.64-.64-.64-1.67,0-2.31l30.42-30.42c.64-.64,1.67-.64,2.31,0s.64,1.67,0,2.31l-30.42,30.42c-.32.32-.74.48-1.15.48h0Z"/>
          <path class="st18" d="M78.57,175.88h-30.42c-.9,0-1.63-.73-1.63-1.63s.73-1.63,1.63-1.63h30.42c.9,0,1.63.73,1.63,1.63s-.73,1.63-1.63,1.63Z"/>
          <path class="st18" d="M78.57,236.72h-30.42c-.9,0-1.63-.73-1.63-1.63s.73-1.63,1.63-1.63h30.42c.9,0,1.63.73,1.63,1.63s-.73,1.63-1.63,1.63Z"/>
          <path class="st18" d="M78.57,297.55h-30.42c-.9,0-1.63-.73-1.63-1.63s.73-1.63,1.63-1.63h30.42c.9,0,1.63.73,1.63,1.63s-.73,1.63-1.63,1.63Z"/>
          <path class="st18" d="M239.66,113.8c-.7,0-1.39-.27-1.92-.8l-18.04-18.04H68.42l-17.85,17.85c-1.06,1.06-2.79,1.06-3.85,0-1.06-1.06-1.06-2.78,0-3.85l18.65-18.65c.51-.51,1.2-.8,1.92-.8h153.53c.72,0,1.41.29,1.92.8l18.84,18.84c1.06,1.06,1.06,2.78,0,3.85-.53.53-1.23.8-1.93.8h0Z"/>
          <path class="st18" d="M86.58,113.16c-.42,0-.84-.16-1.15-.48l-19.29-19.29c-.64-.64-.64-1.67,0-2.31s1.67-.64,2.31,0l18.14,18.14,17.94-17.94c.64-.64,1.67-.64,2.31,0s.64,1.67,0,2.31l-19.09,19.09c-.32.32-.73.48-1.15.48,0,0-.02,0-.02,0Z"/>
          <path class="st18" d="M124.96,113.16c-.42,0-.84-.16-1.15-.48l-19.29-19.29c-.64-.64-.64-1.67,0-2.31s1.67-.64,2.31,0l18.14,18.14,17.94-17.94c.64-.64,1.67-.64,2.31,0s.64,1.67,0,2.31l-19.09,19.09c-.32.32-.73.48-1.15.48,0,0-.02,0-.02,0Z"/>
          <path class="st18" d="M163.35,113.16c-.42,0-.84-.16-1.15-.48l-19.29-19.29c-.64-.64-.64-1.67,0-2.31s1.67-.64,2.31,0l18.14,18.14,17.94-17.94c.64-.64,1.67-.64,2.31,0s.64,1.67,0,2.31l-19.09,19.09c-.32.32-.74.48-1.15.48,0,0-.02,0-.02,0Z"/>
          <path class="st18" d="M201.73,113.16c-.42,0-.84-.16-1.15-.48l-19.29-19.29c-.64-.64-.64-1.67,0-2.31s1.67-.64,2.31,0l18.14,18.14,17.94-17.94c.64-.64,1.67-.64,2.31,0s.64,1.67,0,2.31l-19.09,19.09c-.32.32-.74.48-1.15.48h-.02Z"/>
        </g>
        <g>
          <path class="st18" d="M244.3,152.86c-.5-1.81-1.61-3.45-3.11-4.58-1.02-.77-2.22-1.27-3.46-1.52-.04-1.67-.1-3.34-.2-5.01h-3.17c-.14,2.21-.19,4.43-.24,6.64l-.04,1.8,1.88.03c2.16.04,4.18,1.57,4.75,3.64.64,2.06-.21,4.47-2.08,5.69-.91.64-2.04.9-3.19.88-1.13-.06-2.28-.44-3.24-1.17-1.96-1.41-3.06-4.23-2.31-7.16-2.03,2.31-1.9,6.49.59,9.03,1.18,1.3,2.87,2.14,4.66,2.4,1.79.24,3.68-.13,5.27-1.07,1.6-.91,2.89-2.38,3.58-4.11.71-1.73.84-3.69.34-5.5h-.03Z"/>
          <polygon class="st0" points="251.05 122.96 251.05 128.27 240.78 144.33 231.09 144.33 220.82 128.27 220.82 122.96 251.05 122.96"/>
        </g>
        <g>
          <path class="st18" d="M33.16,111.08c0,2.91-2.36,5.27-5.27,5.27s-5.27-2.36-5.27-5.27,2.36-5.27,5.27-5.27,5.27,2.36,5.27,5.27Z"/>
          <path class="st4" d="M29.86,111.08c0,1.08-.88,1.96-1.96,1.96s-1.96-.88-1.96-1.96.88-1.96,1.96-1.96,1.96.88,1.96,1.96Z"/>
        </g>
        <g>
          <path class="st18" d="M75.52,79.25c0,2.91-2.36,5.27-5.27,5.27s-5.27-2.36-5.27-5.27,2.36-5.27,5.27-5.27,5.27,2.36,5.27,5.27Z"/>
          <path class="st4" d="M72.21,79.25c0,1.08-.88,1.96-1.96,1.96s-1.96-.88-1.96-1.96.88-1.96,1.96-1.96,1.96.88,1.96,1.96Z"/>
        </g>
        <g>
          <path class="st18" d="M33.16,187.37c0,2.91-2.36,5.27-5.27,5.27s-5.27-2.36-5.27-5.27,2.36-5.27,5.27-5.27,5.27,2.36,5.27,5.27Z"/>
          <path class="st4" d="M29.86,187.37c0,1.08-.88,1.96-1.96,1.96s-1.96-.88-1.96-1.96.88-1.96,1.96-1.96,1.96.88,1.96,1.96Z"/>
        </g>
        <g>
          <path class="st18" d="M33.16,232.87c0,2.91-2.36,5.27-5.27,5.27s-5.27-2.36-5.27-5.27,2.36-5.27,5.27-5.27,5.27,2.36,5.27,5.27Z"/>
          <path class="st4" d="M29.86,232.87c0,1.08-.88,1.96-1.96,1.96s-1.96-.88-1.96-1.96.88-1.96,1.96-1.96,1.96.88,1.96,1.96Z"/>
        </g>
        <path class="st12" d="M37.7,290.52v31.04c0,4.91-3.6,8.97-8.3,9.7-.49.07-.99.12-1.51.12-5.42,0-9.81-4.39-9.81-9.82v-31.04c0-1.66.41-3.23,1.14-4.6,1.65-3.1,4.91-5.21,8.67-5.21,1.82,0,3.53.5,4.99,1.36,1.46.87,2.68,2.11,3.52,3.58.82,1.44,1.29,3.1,1.29,4.87h0Z"/>
        <path class="st6" d="M30.56,295.61v31.04c0,1.67-.41,3.24-1.15,4.61-.49.07-.99.12-1.51.12-5.42,0-9.81-4.39-9.81-9.82v-31.04c0-1.66.41-3.23,1.14-4.6.49-.07.99-.12,1.51-.12,1.82,0,3.53.5,4.99,1.36,1.46.87,2.69,2.09,3.52,3.58.82,1.43,1.3,3.09,1.3,4.87h.01Z"/>
        <rect class="st6" x="18.08" y="353.51" width="90.54" height="28.17"/>
        <path class="st7" d="M251.05,122.96v5.31l-10.27,16.06h-1.69v-5.9c0-5.61-4.55-10.16-10.16-10.16h-8.11v-5.31h30.23Z"/>
        <path class="st12" d="M108.62,353.51v28.17h-22.46c0-2.6-.57-5.07-1.61-7.28-1.04-2.22-2.52-4.17-4.34-5.76-3.03-2.62-6.98-4.22-11.31-4.22H18.08v-10.91h90.54Z"/>
      </g>
      <g>
        <path class="st16" d="M235.41,192.39c-.3,0-.54-.24-.54-.54v-31.4c0-.3.24-.54.54-.54s.54.24.54.54v31.4c0,.3-.24.54-.54.54Z"/>
        <path class="st16" d="M219,188.07c-.07,0-.15-.02-.22-.05-.27-.12-.4-.45-.27-.72l12.91-28.62c.12-.27.44-.4.72-.27.27.12.4.45.27.72l-12.91,28.62c-.09.2-.29.32-.5.32Z"/>
        <path class="st16" d="M251.98,188.07c-.21,0-.4-.12-.5-.32l-12.91-28.62c-.12-.27,0-.6.27-.72.28-.13.6,0,.72.27l12.91,28.62c.12.27,0,.6-.27.72-.07.03-.15.05-.22.05Z"/>
        <g>
          <rect class="st15" x="192.87" y="193.38" width="97.99" height="97.99" transform="translate(-14.07 469.84) rotate(-86.69)"/>
          <rect class="st2" x="184.62" y="183.11" width="97.99" height="97.99" transform="translate(-11.59 451.93) rotate(-86.69)"/>
          <path class="st3" d="M275.42,279.02l-.54-.03-88.16-5.09,5.12-88.71,88.71,5.12-.03.54-5.09,88.16h0ZM187.86,272.87l86.53,5,5-86.53-86.53-5-5,86.53h0Z"/>
          <polygon class="st3" points="188.95 244.59 225.81 211.76 275.78 263.29 274.9 278.44 187.29 273.38 188.95 244.59"/>
          <polygon class="st3" points="276.8 245.69 274.9 278.44 216.41 275.06 217.54 255.44 254.41 222.6 276.8 245.69"/>
          <path class="st3" d="M251.64,206.24c-.22,3.86-3.53,6.8-7.39,6.58s-6.8-3.53-6.58-7.39,3.53-6.8,7.39-6.58,6.8,3.53,6.58,7.39Z"/>
        </g>
      </g>
    </g>
  </g>
  <g>
    <path class="st2" d="M263.88,273.02l-10.68-.55-9.13-.4c.74-2.29,1.18-3.45,2.02-5.33l17.32.99c.62.04,1.84-.8,1.84-1.3s-1.12-1.21-1.71-1.25l-11.05-.72c-1.95-.13-4.29-1.76-4.59-3.74-.77-5.05,3.46-9.11,8.23-8.83l18.78,1.08-1.8,5.36-16.6-.87c-.49-.03-1.85,1-1.64,1.28.26.35.97,1.08,1.55,1.12l11.26.78c1.35.09,3.28,1.35,3.94,2.33.79,1.17.83,3.71.36,5.12-1.26,3.8-4.12,5.13-8.1,4.93Z"/>
    <g>
      <path class="st2" d="M249.69,251.56l-11,20.03c-2.41.09-5-.04-7.69-.31l-1.91-12.43-6.71,11.79c-2.4.11-5.15-.02-7.7-.25l-1.8-15-6.29-1.08c4.25-2.16,7.11-3.16,12.17-4.76l1.68,13.8,7.43-13.12,6.28.46,1.77,13.83,7.04-13.45,6.72.48Z"/>
      <g>
        <path class="st2" d="M263.55,239.81c-.97.4-2.24.47-3.7.62-17.69,1.76-45.94,6.87-61.59,16.78-.19-.39-.09-1.76.15-2.99l-8.39-.31v-.61l2-5c4.05-.22,8.58.93,12.55.29,15.68-4.18,31.08-7.68,47.3-8.14,1.7-.05,3.18-.11,4.32-.63h7.35Z"/>
        <path class="st2" d="M202.05,269.47c-2.58.08-4.75-.02-7.4-.25,2.34-9.28.39-9.82,10.78-14.34-.89,4.88-1.98,9.01-3.38,14.58Z"/>
      </g>
    </g>
  </g>
</svg>